<svg width="60" height="66" viewBox="0 0 60 66" fill="white" xmlns="http://www.w3.org/2000/svg">
<path d="M0 19.1682C0.792245 15.9379 3.00316 14.0291 5.8405 12.4599C12.3903 8.83503 18.8573 5.04498 25.3426 1.30082C28.355 -0.433607 31.3213 -0.433607 34.3245 1.30082C41.2889 5.32029 48.2625 9.31222 55.2453 13.3133C58.2208 15.0202 59.6763 17.553 59.6671 20.976C59.6395 28.9874 59.6395 36.9988 59.6671 45.0102C59.6763 48.4883 58.1747 51.0119 55.1624 52.7371C48.2164 56.7015 41.2704 60.6935 34.3429 64.6946C31.3305 66.429 28.3642 66.4474 25.361 64.7038C21.713 62.5839 18.0374 60.5008 14.3802 58.3993C14.067 58.2157 13.7722 58.0138 13.4497 57.8119C14.8592 56.7199 15.6146 55.3893 16.0476 53.7007C16.4713 52.0581 17.3373 50.5255 18.019 48.9563C19.4468 45.6801 21.3722 42.7068 23.5647 39.8987C24.6149 38.5497 25.0663 38.4029 26.356 39.4857C27.8668 40.7522 29.2578 42.1746 30.6212 43.597C32.2702 45.3131 33.9007 47.0567 35.4391 48.8737C36.5077 50.1401 37.6132 51.4249 37.8251 53.2143C37.8619 53.4988 38.3962 53.7649 38.7463 53.976C39.2898 54.2972 39.8702 54.5725 40.4505 54.8386C41.077 55.1231 41.731 55.5636 42.3667 55.5636C42.901 55.5636 43.6103 55.114 43.8959 54.6551C44.0617 54.3798 43.6932 53.5539 43.3432 53.2235C42.5233 52.4618 41.556 51.8562 40.6164 51.1679C40.8927 50.7274 41.0678 50.4154 41.2704 50.1217C41.7863 49.3692 41.5652 48.8186 40.9388 48.2129C39.8149 47.1393 38.7371 46.0013 37.7053 44.845C36.5907 43.597 35.7063 42.1654 34.0757 41.4037C33.5414 41.1559 33.219 40.3667 32.8874 39.7794C31.5608 37.3934 30.4185 34.8881 28.9446 32.5939C26.6876 29.07 27.4614 25.5461 28.5208 21.9579C28.5392 21.8845 28.5485 21.7928 28.6037 21.756C29.9855 20.7649 31.3029 19.6545 32.786 18.847C33.9099 18.223 35.2457 17.9752 36.4893 17.5714C36.9684 17.4154 37.4474 17.1676 37.9264 17.1584C38.7647 17.1401 39.603 17.2869 40.3676 17.3512C40.3216 17.2043 40.2295 16.9107 40.1373 16.6078C40.2387 16.5619 40.34 16.5069 40.4413 16.461C40.211 16.3142 39.9899 16.1673 39.7412 16.0022C39.9162 15.9012 40.0913 15.7911 40.4966 15.5617C39.9162 15.4424 39.5938 15.3781 39.2622 15.3139C39.1885 15.2588 39.124 15.1946 39.0503 15.1395C39.3543 15.0478 39.6675 14.956 39.9715 14.8642C39.8886 14.7357 39.8057 14.6073 39.7228 14.4788C39.1977 14.5614 38.5068 14.8918 38.2028 14.6715C37.8527 14.4237 37.8435 13.6988 37.4658 13.194C37.4197 13.4143 37.3829 13.6345 37.3368 13.8456C36.9776 15.5708 36.4893 16.2132 34.8035 16.0022C32.8137 15.7636 31.4779 16.9198 29.9303 17.6265C29.1841 17.966 28.5485 18.2964 27.6549 18.1312C27.0745 18.0211 26.402 18.3698 25.7756 18.5441C25.2689 18.6818 24.7715 18.8653 24.099 19.0856C24.1358 18.434 24.0069 17.9109 24.2095 17.5989C25.011 16.3325 24.403 15.2313 23.7858 14.2402C22.8553 12.7444 20.7365 12.9371 20.0825 14.5706C19.6127 15.736 19.5942 16.9565 20.4602 18.0578C20.7181 18.379 20.8195 18.8195 21.0774 19.3701C20.4325 19.3701 19.9719 19.3425 19.5205 19.3701C18.627 19.4435 17.7242 19.6637 16.8306 19.627C15.7988 19.5811 14.721 19.4894 13.7814 19.1223C12.7588 18.7185 11.8192 18.5809 10.7966 18.9479C10.7598 18.9571 10.7229 18.9571 10.6861 18.9755C9.30427 19.4343 8.09748 19.3242 7.26839 17.9568C7.10257 17.6907 6.8999 17.4429 6.46693 17.2594C6.54984 17.6907 6.63275 18.1312 6.73408 18.6543C6.18135 18.5166 5.66547 18.379 5.14959 18.2505C5.07589 18.3606 5.01141 18.4707 4.93771 18.5809C5.1588 18.7644 5.3799 18.9479 5.57335 19.1039C5.42596 19.159 5.20486 19.2324 4.78111 19.3792C5.27856 19.6178 5.58256 19.7647 5.97868 19.9482C5.66547 20.1134 5.39832 20.251 5.14038 20.3795C5.27856 20.7007 5.40753 21.0127 5.55493 21.3706C7.11178 20.8475 8.69627 20.8751 10.2992 21.4716C10.8243 21.6643 11.4876 21.7285 12.0219 21.5909C13.0076 21.3523 13.7998 21.6276 14.6381 22.0681C15.4396 22.481 16.3239 22.7288 17.1622 23.0867C17.4294 23.206 17.7058 23.3895 17.8808 23.619C19.3824 25.6012 19.4376 27.9321 19.6219 30.2814C19.8338 33.0895 19.0047 35.6498 18.1848 38.2469C17.715 39.7335 17.3649 41.2844 16.7385 42.7068C16.2963 43.6979 15.3843 44.4596 14.85 45.4232C14.1407 46.6896 13.634 48.0661 12.9799 49.3692C12.6759 49.9841 12.3166 50.6081 11.8468 51.0945C10.9164 52.0581 11.1375 52.8931 11.9205 53.765C12.0679 53.9301 12.1969 54.1045 12.4272 54.389C11.9482 55.0222 11.4507 55.6737 10.8795 56.4262C8.21724 54.8386 5.59177 53.3795 3.07686 51.7369C1.34497 50.6081 0.59879 48.7269 0.00921215 46.8181V19.159L0 19.1682Z"/>
</svg>
