<svg width="239" height="66" viewBox="0 0 239 66" fill="none" xmlns="http://www.w3.org/2000/svg">
<g clip-path="url(#clip0_762_425)">
<path d="M0 19.1701C0.792245 15.9399 3.00316 14.0311 5.8405 12.4618C12.3903 8.83698 18.8573 5.04693 25.3426 1.30277C28.355 -0.431654 31.3213 -0.431654 34.3245 1.30277C41.2889 5.32224 48.2625 9.31418 55.2453 13.3153C58.2208 15.0222 59.6763 17.555 59.6671 20.978C59.6395 28.9894 59.6395 37.0008 59.6671 45.0122C59.6763 48.4902 58.1747 51.0138 55.1623 52.7391C48.2164 56.7035 41.2704 60.6954 34.3429 64.6965C31.3305 66.431 28.3642 66.4493 25.361 64.7057C21.713 62.5859 18.0374 60.5027 14.3802 58.4012C14.067 58.2177 13.7722 58.0158 13.4497 57.8139C14.8592 56.7219 15.6146 55.3912 16.0476 53.7027C16.4713 52.06 17.3373 50.5275 18.019 48.9582C19.4468 45.6821 21.3722 42.7088 23.5647 39.9007C24.6149 38.5517 25.0663 38.4048 26.356 39.4877C27.8668 40.7541 29.2578 42.1765 30.6212 43.5989C32.2702 45.315 33.9007 47.0586 35.4391 48.8756C36.5077 50.142 37.6132 51.4268 37.8251 53.2163C37.8619 53.5008 38.3962 53.7669 38.7463 53.978C39.2898 54.2992 39.8702 54.5745 40.4505 54.8406C41.077 55.1251 41.731 55.5656 42.3667 55.5656C42.901 55.5656 43.6103 55.1159 43.8959 54.6571C44.0617 54.3818 43.6932 53.5558 43.3432 53.2255C42.5233 52.4638 41.556 51.8581 40.6164 51.1698C40.8927 50.7294 41.0678 50.4173 41.2704 50.1237C41.7863 49.3712 41.5652 48.8206 40.9388 48.2149C39.8149 47.1412 38.7371 46.0033 37.7053 44.847C36.5907 43.5989 35.7063 42.1673 34.0757 41.4057C33.5414 41.1579 33.219 40.3687 32.8874 39.7814C31.5608 37.3954 30.4185 34.8901 28.9446 32.5959C26.6876 29.072 27.4614 25.548 28.5208 21.9599C28.5392 21.8865 28.5485 21.7947 28.6037 21.758C29.9855 20.7669 31.3029 19.6565 32.786 18.8489C33.9099 18.2249 35.2457 17.9771 36.4893 17.5734C36.9684 17.4173 37.4474 17.1696 37.9264 17.1604C38.7647 17.142 39.603 17.2889 40.3676 17.3531C40.3216 17.2063 40.2295 16.9126 40.1373 16.6098C40.2387 16.5639 40.34 16.5088 40.4413 16.463C40.211 16.3161 39.9899 16.1693 39.7412 16.0041C39.9162 15.9032 40.0913 15.793 40.4966 15.5636C39.9162 15.4443 39.5938 15.3801 39.2622 15.3158C39.1885 15.2608 39.124 15.1965 39.0503 15.1415C39.3543 15.0497 39.6675 14.9579 39.9715 14.8662C39.8886 14.7377 39.8057 14.6092 39.7228 14.4807C39.1977 14.5633 38.5068 14.8937 38.2028 14.6735C37.8527 14.4257 37.8435 13.7007 37.4658 13.196C37.4198 13.4162 37.3829 13.6365 37.3368 13.8475C36.9776 15.5728 36.4893 16.2152 34.8035 16.0041C32.8137 15.7655 31.4779 16.9218 29.9303 17.6284C29.1841 17.968 28.5485 18.2983 27.6549 18.1331C27.0745 18.023 26.402 18.3717 25.7756 18.5461C25.2689 18.6838 24.7715 18.8673 24.099 19.0875C24.1358 18.436 24.0069 17.9129 24.2095 17.6009C25.011 16.3345 24.403 15.2333 23.7858 14.2422C22.8553 12.7463 20.7365 12.939 20.0825 14.5725C19.6127 15.738 19.5942 16.9585 20.4602 18.0597C20.7181 18.3809 20.8195 18.8214 21.0774 19.372C20.4325 19.372 19.9719 19.3445 19.5205 19.372C18.627 19.4454 17.7242 19.6657 16.8306 19.629C15.7988 19.5831 14.721 19.4913 13.7814 19.1242C12.7588 18.7205 11.8192 18.5828 10.7966 18.9499C10.7598 18.9591 10.7229 18.9591 10.6861 18.9774C9.30427 19.4363 8.09748 19.3261 7.26839 17.9588C7.10257 17.6927 6.8999 17.4449 6.46693 17.2613C6.54984 17.6926 6.63275 18.1331 6.73408 18.6562C6.18135 18.5186 5.66547 18.3809 5.14959 18.2524C5.07589 18.3626 5.01141 18.4727 4.93771 18.5828C5.1588 18.7663 5.3799 18.9499 5.57335 19.1059C5.42596 19.1609 5.20486 19.2344 4.78111 19.3812C5.27856 19.6198 5.58256 19.7666 5.97868 19.9502C5.66547 20.1153 5.39832 20.253 5.14038 20.3815C5.27856 20.7027 5.40753 21.0147 5.55493 21.3726C7.11178 20.8495 8.69627 20.877 10.2992 21.4735C10.8243 21.6662 11.4876 21.7305 12.0219 21.5928C13.0076 21.3542 13.7998 21.6295 14.6381 22.07C15.4396 22.483 16.3239 22.7307 17.1622 23.0886C17.4294 23.2079 17.7058 23.3915 17.8808 23.6209C19.3824 25.6031 19.4376 27.934 19.6219 30.2833C19.8338 33.0914 19.0047 35.6518 18.1848 38.2488C17.715 39.7355 17.3649 41.2864 16.7385 42.7088C16.2963 43.6999 15.3843 44.4616 14.85 45.4251C14.1406 46.6915 13.634 48.0681 12.9799 49.3712C12.6759 49.986 12.3166 50.6101 11.8468 51.0964C10.9164 52.06 11.1375 52.8951 11.9205 53.7669C12.0679 53.9321 12.1969 54.1064 12.4272 54.3909C11.9482 55.0241 11.4507 55.6757 10.8795 56.4282C8.21724 54.8406 5.59177 53.3815 3.07686 51.7388C1.34497 50.6101 0.59879 48.7288 0.00921215 46.82V19.1609L0 19.1701Z" fill="white"/>
<path d="M146.4 27.4661C145.249 31.0359 144.208 34.2937 143.158 37.5423C142.863 38.4508 142.605 39.3593 142.264 40.2495C141.619 41.9105 140.477 42.975 138.598 43.131C136.626 43.287 135.161 42.5162 134.213 40.8001C133.909 40.2587 133.66 39.6805 133.457 39.1024C131.329 33.1466 129.21 27.1908 127.11 21.235C126.843 20.4825 126.613 19.7025 126.456 18.9133C126.069 17.0229 126.788 15.6647 128.455 15.0223C130.297 14.3157 132.204 14.8388 133.144 16.3529C133.393 16.7476 133.559 17.2064 133.697 17.6561C135.023 21.9875 136.331 26.3282 137.649 30.6597C137.768 31.0635 137.925 31.4672 138.146 32.128C139.574 27.5946 140.91 23.3549 142.246 19.106C142.421 18.5462 142.577 17.9864 142.771 17.4358C143.443 15.5637 144.585 14.7286 146.465 14.7378C148.298 14.747 149.431 15.527 150.048 17.4083C151.522 21.9233 152.922 26.4567 154.36 30.99C154.461 31.3021 154.571 31.6049 154.756 32.128C155.787 28.7417 156.755 25.5757 157.713 22.4097C158.192 20.8404 158.652 19.262 159.131 17.6836C159.868 15.2701 161.766 14.2056 164.042 14.9122C166.087 15.5454 167.008 17.4817 166.225 19.7943C164.65 24.3919 163.001 28.962 161.379 33.5412C160.605 35.707 159.878 37.891 159.021 40.0293C158.293 41.8463 157.031 43.0851 154.894 43.131C152.628 43.1769 151.218 42.1675 150.435 39.7998C149.228 36.1566 148.077 32.495 146.907 28.8427C146.787 28.4756 146.649 28.1085 146.419 27.457L146.4 27.4661Z" fill="white"/>
<path d="M75.9993 16.9309C79.3249 14.1778 82.9453 13.8383 86.7222 15.0037C90.5913 16.1967 92.9036 18.9498 93.1707 22.9234C93.4747 27.4751 93.3366 32.0635 93.3642 36.6336C93.3642 37.7257 93.3826 38.8361 93.2352 39.9189C92.9681 41.8828 91.5586 43.1125 89.6701 43.1492C87.6895 43.1859 86.2616 42.0296 85.8931 40.0291C85.7918 39.4968 85.7642 38.937 85.7642 38.3956C85.755 34.5596 85.7642 30.7145 85.7642 26.8786C85.7642 26.4748 85.7642 26.071 85.755 25.6764C85.6444 22.5471 83.7928 20.7026 80.7896 20.7209C77.9523 20.7485 76.0546 22.7123 76.0269 25.7866C75.9901 29.338 76.0177 32.8803 76.0177 36.4317C76.0177 37.3494 76.0361 38.2579 76.0085 39.1756C75.944 41.5891 74.4424 43.1675 72.2315 43.1584C70.0206 43.1584 68.4914 41.5799 68.4822 39.1664C68.4545 31.5955 68.473 24.0246 68.473 16.4537C68.473 13.1225 68.4361 9.80047 68.4914 6.46927C68.5375 3.89975 70.4812 2.30297 72.9593 2.70675C74.7464 2.99124 75.9809 4.50542 76.0085 6.58857C76.0454 9.66282 76.0269 12.7371 76.0269 15.8021C76.0269 16.1325 76.0269 16.4537 76.0269 16.9584L75.9993 16.9309Z" fill="white"/>
<path d="M176.292 31.4583C176.412 34.1104 178.623 36.2395 181.589 36.735C183.717 37.0929 185.679 36.6891 187.559 35.7347C188.572 35.2208 189.558 34.6335 190.589 34.1655C191.99 33.5323 193.252 33.8902 194.219 35.0924C195.159 36.267 195.251 37.6435 194.32 38.8274C193.814 39.4789 193.187 40.1121 192.487 40.5434C188.185 43.2139 183.533 44.2234 178.558 42.9386C172.211 41.3051 168.241 35.6705 168.416 28.7512C168.572 22.5843 172.082 17.2617 177.296 15.2612C184.869 12.3521 193.408 17.1516 195.232 25.3465C195.435 26.2642 195.555 27.2278 195.555 28.1638C195.555 30.4397 194.541 31.44 192.248 31.4492C187.319 31.4675 182.391 31.4492 177.462 31.4492C177.066 31.4492 176.67 31.4492 176.274 31.4492L176.292 31.4583ZM187.927 26.3743C187.743 22.9147 185.08 20.547 181.617 20.7122C178.66 20.8499 176.08 23.5203 176.154 26.3743H187.927Z" fill="white"/>
<path d="M97.5742 29.6421C97.6848 24.393 99.2969 20.3919 102.936 17.3635C108.758 12.5089 117.463 13.6836 121.848 20.0248C125.524 25.3474 125.754 31.037 122.733 36.7175C120.061 41.7372 114.884 44.1049 108.96 43.3157C103.783 42.6274 99.389 38.4703 98.0993 32.9642C97.8045 31.6886 97.694 30.3763 97.5834 29.6421H97.5742ZM117.426 29.0365C117.325 29.0089 117.224 28.9722 117.122 28.9447C117.122 27.1552 116.735 25.4667 115.777 23.9341C113.567 20.4194 108.684 20.3827 106.556 23.9617C104.677 27.1185 104.658 30.4405 106.381 33.68C107.385 35.5704 109.016 36.5707 111.227 36.5523C113.391 36.534 115.031 35.5337 115.925 33.6616C116.616 32.2117 116.938 30.5874 117.426 29.0456V29.0365Z" fill="white"/>
<path d="M208.25 43.4986C205.551 43.3794 202.879 42.7829 200.466 41.3237C199.756 40.8924 199.075 40.3418 198.531 39.727C197.481 38.534 197.435 37.3134 198.236 35.992C199.038 34.6705 200.328 34.0098 201.783 34.4136C202.861 34.7164 203.902 35.2303 204.897 35.7534C206.5 36.5976 208.14 37.0932 209.973 36.772C210.894 36.6068 211.548 36.203 211.723 35.2303C211.898 34.2943 211.447 33.6335 210.673 33.2481C209.531 32.67 208.333 32.2019 207.163 31.6788C205.625 30.9906 204.031 30.3941 202.566 29.5773C196.597 26.2278 198.089 18.9322 202.317 16.1975C206.187 13.6922 212.856 13.8482 216.523 16.638C218.245 17.9503 218.789 19.7948 217.941 21.4558C217.186 22.9333 215.712 23.5206 214.137 22.9241C212.801 22.4194 211.52 21.7403 210.157 21.3457C209.282 21.0887 208.241 21.0245 207.366 21.2448C206.795 21.3824 206.122 22.1349 206.002 22.7131C205.892 23.2178 206.316 24.1263 206.785 24.42C207.918 25.1357 209.208 25.6038 210.443 26.1727C212.009 26.8885 213.639 27.485 215.132 28.3293C220.825 31.5412 219.692 38.4055 215.601 41.3237C213.418 42.8746 210.949 43.4161 208.232 43.5078L208.25 43.4986Z" fill="white"/>
<path d="M225.66 21.6951C221.681 21.3463 220.677 20.6581 220.658 18.3914C220.649 16.1339 221.718 15.3722 225.66 14.9225C225.66 14.1884 225.66 13.4359 225.66 12.6834C225.67 11.7014 225.633 10.7012 225.734 9.72842C225.928 7.83799 227.309 6.51652 229.097 6.39722C231.114 6.26874 232.643 7.32408 233.03 9.28793C233.242 10.3524 233.187 11.4628 233.224 12.5549C233.251 13.3166 233.224 14.0874 233.224 15.0235C234.071 15.0235 234.863 14.9868 235.656 15.0235C237.811 15.1428 238.981 16.3266 238.981 18.318C238.981 20.19 237.857 21.4289 235.969 21.5666C235.103 21.6308 234.219 21.5758 233.224 21.5758C233.224 22.108 233.224 22.5026 233.224 22.888C233.224 28.0821 233.224 33.2671 233.224 38.4612C233.224 39.076 233.168 39.7092 233.03 40.3057C232.579 42.1503 231.142 43.1873 229.226 43.1138C227.457 43.0496 226.047 41.8199 225.762 40.0121C225.67 39.4431 225.67 38.8466 225.66 38.2593C225.66 33.1753 225.66 28.0913 225.66 23.0165C225.66 22.5852 225.66 22.1539 225.66 21.6767V21.6951Z" fill="white"/>
<path d="M176.845 55.0801C176.126 57.4477 175.426 59.8245 174.698 62.1922C174.275 63.5687 173.261 64.3212 172.091 63.8899C171.474 63.6605 170.755 62.9722 170.59 62.3665C169.622 58.6958 168.793 54.9792 167.946 51.2809C167.715 50.2898 168.13 49.6107 168.978 49.3996C169.926 49.161 170.7 49.6199 170.931 50.6752C171.483 53.208 171.971 55.7592 172.487 58.3012C172.524 58.4939 172.579 58.6866 172.856 58.8885C173.316 57.3743 173.786 55.8601 174.238 54.346C174.579 53.2264 174.901 52.1068 175.223 50.978C175.481 50.0604 175.933 49.3262 177.011 49.3537C178.024 49.3813 178.438 50.0879 178.696 50.9597C179.415 53.4191 180.152 55.8601 180.889 58.3104C180.963 58.5398 181.064 58.7692 181.257 59.2556C181.847 56.3557 182.363 53.7219 182.916 51.0973C183.008 50.6477 183.146 50.0145 183.468 49.8401C183.984 49.5648 184.73 49.3904 185.265 49.5373C186.131 49.7851 186.121 50.6477 185.956 51.391C185.44 53.7127 184.887 56.0161 184.343 58.3287C184.03 59.641 183.717 60.9625 183.404 62.2748C183.155 63.3301 182.538 63.9541 181.414 63.9633C180.308 63.9817 179.627 63.4127 179.314 62.3757C178.567 59.9347 177.821 57.4936 177.075 55.0434C177.001 55.0434 176.918 55.0617 176.845 55.0709V55.0801Z" fill="white"/>
<path d="M132.352 55.3449C132.094 55.0054 131.845 54.776 131.707 54.4823C131.477 53.9959 131.228 53.4912 131.145 52.959C130.942 51.61 131.578 50.4904 132.84 49.8021C134.553 48.8753 137.059 49.0588 138.459 50.2334C139.427 51.041 139.869 52.1422 139.335 53.271C138.856 54.2804 138.017 55.1247 137.216 56.1984C137.336 56.336 137.658 56.7031 137.98 57.061C138.321 57.4373 138.662 57.8135 139.04 58.2357C139.482 57.7676 139.869 57.3271 140.283 56.9325C140.809 56.4278 141.546 56.1433 142.025 56.7398C142.347 57.1344 142.393 57.9695 142.218 58.4834C142.015 59.0983 141.435 59.603 140.965 60.2179C141.407 60.7226 141.868 61.2365 142.31 61.7687C142.854 62.4295 142.909 63.1177 142.255 63.7142C141.619 64.2924 140.919 64.2832 140.283 63.6867C139.804 63.237 139.362 62.7507 139.058 62.4387C137.64 63.0168 136.387 63.7785 135.033 64.0262C131.606 64.6595 128.925 62.1725 129.441 58.9882C129.717 57.2996 130.915 56.2718 132.352 55.3358V55.3449ZM136.949 60.2362C136.083 59.2726 135.235 58.3182 134.36 57.3914C134.24 57.2629 133.973 57.162 133.807 57.2078C133.033 57.4006 132.232 58.7771 132.315 59.6948C132.407 60.6767 133.061 61.3007 134.148 61.4017C135.244 61.5026 136.156 61.1172 136.949 60.2362ZM135.29 54.2254C135.991 53.7941 136.829 53.4453 136.645 52.4818C136.571 52.1239 135.981 51.6375 135.604 51.6191C135.171 51.5916 134.461 51.9128 134.305 52.2615C133.918 53.1517 134.655 53.6839 135.3 54.2254H135.29Z" fill="white"/>
<path d="M224.86 55.2173C224.86 57.484 224.86 59.7507 224.86 62.0173C224.86 63.3847 224.39 63.9628 223.331 63.972C222.281 63.972 221.792 63.3847 221.783 62.0265C221.783 58.4475 221.783 54.8594 221.783 51.2804C221.783 50.4728 221.894 49.7112 222.815 49.4359C223.736 49.1514 224.353 49.6377 224.869 50.326C226.629 52.6753 228.388 55.0062 230.157 57.3463C230.387 57.6583 230.645 57.952 231.078 58.5026C231.078 56.2267 231.078 54.2354 231.078 52.244C231.078 51.7668 231.051 51.2896 231.097 50.8216C231.18 49.8763 231.714 49.3166 232.672 49.3533C233.63 49.39 234.137 49.9589 234.146 50.9225C234.146 53.9601 234.146 56.9884 234.146 60.026C234.146 60.7968 234.266 61.586 234.109 62.3202C233.989 62.8891 233.621 63.66 233.169 63.8252C232.7 63.9995 231.889 63.6967 231.419 63.348C230.857 62.9258 230.489 62.2284 230.047 61.6503C228.388 59.4753 226.73 57.3004 225.072 55.1347C224.998 55.1714 224.934 55.1989 224.86 55.2356V55.2173Z" fill="white"/>
<path d="M154.415 55.9596C156.957 57.1801 157.74 58.6576 157.068 60.9427C156.598 62.5486 155.474 63.5397 153.853 63.7049C151.992 63.8976 150.113 63.8793 148.233 63.8517C147.238 63.8425 146.713 63.1818 146.713 62.1907C146.713 58.4924 146.695 54.8033 146.713 51.1051C146.713 49.9671 147.275 49.4807 148.454 49.4532C149.707 49.4349 150.96 49.4349 152.204 49.4532C153.982 49.4807 155.354 50.3617 155.852 51.7841C156.404 53.3442 155.935 54.7391 154.405 55.9596H154.415ZM149.818 61.1445C150.757 61.1445 151.596 61.1813 152.434 61.1354C153.401 61.0803 154 60.5572 154.065 59.5661C154.12 58.6026 153.567 58.0336 152.655 57.9418C151.734 57.85 150.794 57.9235 149.818 57.9235V61.1537V61.1445ZM149.836 55.152C150.942 55.0695 152.121 55.5283 152.738 54.3995C152.968 53.9774 152.968 53.1607 152.71 52.7844C152.019 51.7841 150.896 52.142 149.836 52.1604V55.152Z" fill="white"/>
<path d="M207.107 58.118C206.471 58.118 205.817 58.1364 205.163 58.118C204.233 58.0813 203.717 57.5491 203.763 56.6405C203.8 55.7687 204.362 55.3558 205.237 55.3558C206.379 55.3558 207.512 55.3283 208.655 55.3558C209.88 55.3925 210.341 55.8697 210.433 57.1177C210.746 61.3207 207.098 64.6886 202.906 64.0646C199.876 63.615 197.738 61.6786 197.029 58.742C196.255 55.4934 197.333 52.1898 199.719 50.4829C201.948 48.8769 205.698 48.8035 208.074 50.3177C208.351 50.492 208.618 50.7031 208.839 50.9417C209.438 51.5657 209.64 52.2999 209.069 53.0157C208.507 53.7223 207.789 53.5296 207.07 53.19C206.287 52.8138 205.513 52.2815 204.684 52.1439C201.653 51.6483 199.599 53.9517 199.986 57.2737C200.309 60.0268 201.893 61.5502 204.205 61.3207C206.029 61.1372 207.181 59.935 207.098 58.1364L207.107 58.118Z" fill="white"/>
<path d="M105.194 56.6491C105.213 62.4305 99.7777 65.9177 94.8492 63.284C91.6433 61.5771 90.2984 57.2089 91.8184 53.4922C93.1818 50.1702 96.6179 48.5092 100.128 49.4728C103.159 50.3079 105.185 53.171 105.194 56.6491ZM102.191 56.906C101.952 55.9149 101.86 55.0707 101.546 54.309C100.957 52.8682 99.8514 52.0515 98.23 52.0423C96.6087 52.0423 95.494 52.8223 94.886 54.2631C94.149 55.9975 94.1675 57.7687 95.0518 59.448C96.3415 61.8707 99.8237 62.0084 101.206 59.6591C101.703 58.8056 101.887 57.7687 102.191 56.906Z" fill="white"/>
<path d="M113.42 57.9246C114.562 59.1451 115.585 60.228 116.598 61.3384C117.353 62.1643 117.353 63.0177 116.635 63.6326C115.953 64.2107 115.023 64.0822 114.313 63.2747C113.595 62.4488 112.904 61.5861 112.204 60.7419C111.531 59.9343 110.859 59.1176 109.947 58.3559C109.947 59.6039 110.03 60.8612 109.91 62.1C109.855 62.6874 109.578 63.4307 109.136 63.761C108.187 64.4677 106.916 63.7243 106.907 62.4855C106.87 58.6495 106.888 54.8136 106.898 50.9777C106.898 50.1334 107.312 49.5094 108.178 49.491C109.938 49.4543 111.716 49.3809 113.457 49.6011C115.714 49.8856 116.911 51.2713 117.068 53.3637C117.243 55.6303 116.349 56.9151 114.065 57.7043C113.899 57.7594 113.724 57.8236 113.42 57.9246ZM110.002 55.8598C111.356 55.6762 112.849 56.3553 113.632 54.9329C113.908 54.419 113.834 53.382 113.484 52.9232C112.572 51.7761 111.209 52.4368 110.011 52.2716V55.8598H110.002Z" fill="white"/>
<path d="M73.3928 49.0586C74.3693 49.3431 75.3827 49.5358 76.3131 49.9212C77.1422 50.2608 77.5567 50.9674 77.133 51.8942C76.7369 52.7477 76.0552 52.867 75.1984 52.61C74.4983 52.399 73.7521 52.1053 73.0704 52.1971C72.5361 52.2705 71.8452 52.7752 71.6333 53.2616C71.3293 53.9866 72.0755 54.3078 72.6743 54.528C73.6692 54.8859 74.701 55.1796 75.6867 55.565C77.3172 56.189 78.2477 57.382 78.3306 59.1256C78.4135 60.86 77.7778 62.3192 76.267 63.2277C73.9087 64.6317 71.4767 64.3473 69.1 63.2644C68.2617 62.879 67.9669 62.0897 68.3262 61.2271C68.6947 60.337 69.4869 60.3278 70.2884 60.548C70.749 60.6765 71.1911 60.8876 71.6518 60.961C72.2966 61.0619 72.9599 61.1537 73.6047 61.0986C74.4246 61.016 75.0326 60.4379 74.9589 59.6487C74.9129 59.1623 74.4062 58.5842 73.9456 58.2997C73.3744 57.9418 72.6467 57.8225 71.9834 57.6206C69.0355 56.7488 67.9577 55.464 68.2709 53.179C68.5841 50.8389 70.6568 49.233 73.3836 49.0769L73.3928 49.0586Z" fill="white"/>
<path d="M83.0844 59.0905C83.0844 60.2559 83.1028 61.2746 83.0844 62.284C83.0568 63.4036 82.5869 63.9358 81.6381 63.9634C80.68 63.9909 80.0628 63.4678 80.0536 62.3941C80.0168 58.5949 80.026 54.7865 80.0536 50.9873C80.0536 49.9962 80.6432 49.4456 81.6841 49.4456C83.0107 49.4456 84.3373 49.4089 85.6546 49.4639C88.4459 49.5832 90.3988 51.5379 90.4449 54.1992C90.491 56.8697 88.6117 58.861 85.802 59.0721C84.9637 59.1363 84.1162 59.0813 83.0844 59.0813V59.0905ZM83.1397 56.4659C84.5768 56.3099 86.0691 56.8697 86.9627 55.4014C87.451 54.5938 87.4325 53.6761 86.8245 52.9328C85.8296 51.6939 84.457 52.1895 83.1397 52.1619V56.4659Z" fill="white"/>
<path d="M215.186 52.2804V55.1894C216.199 55.1894 217.176 55.1802 218.162 55.1894C219.341 55.2078 220.004 55.7492 219.976 56.6394C219.949 57.4836 219.304 57.9975 218.189 58.0159C217.231 58.0343 216.282 58.0159 215.232 58.0159V61.081C216.356 61.081 217.48 61.0718 218.604 61.081C219.746 61.0901 220.345 61.5765 220.345 62.4575C220.345 63.3293 219.737 63.8707 218.622 63.8891C217.038 63.9166 215.462 63.9258 213.878 63.8891C212.588 63.8616 212.082 63.3293 212.072 62.0537C212.054 58.5115 212.054 54.96 212.072 51.4177C212.072 49.9586 212.607 49.4722 214.09 49.4631C215.527 49.4631 216.955 49.4539 218.392 49.4631C219.543 49.4722 220.142 49.9403 220.161 50.8212C220.188 51.7114 219.516 52.262 218.346 52.2804C217.323 52.2987 216.301 52.2804 215.168 52.2804H215.186Z" fill="white"/>
<path d="M161.94 52.2721V55.1812C162.898 55.1812 163.875 55.172 164.851 55.1812C166.04 55.1996 166.712 55.7135 166.703 56.6036C166.703 57.4754 166.021 57.9985 164.833 58.0077C163.884 58.0168 162.935 58.0077 161.94 58.0077V61.0727C163.092 61.0727 164.225 61.0636 165.349 61.0727C166.5 61.0911 167.072 61.5499 167.053 62.4676C167.025 63.4954 166.362 63.8625 165.441 63.8809C163.82 63.9084 162.198 63.9176 160.586 63.8809C159.315 63.8533 158.817 63.3119 158.817 62.018C158.808 58.5032 158.808 54.9977 158.817 51.4829C158.817 49.9229 159.306 49.4548 160.863 49.4457C162.336 49.4457 163.81 49.4273 165.275 49.4457C166.316 49.464 166.924 49.9871 166.887 50.8405C166.841 51.8316 166.206 52.2446 165.266 52.2538C164.197 52.2721 163.138 52.2538 161.94 52.2538V52.2721Z" fill="white"/>
<path d="M190.637 52.2708V55.1798C191.641 55.1798 192.626 55.1707 193.603 55.1798C194.782 55.1982 195.445 55.7488 195.408 56.639C195.372 57.4832 194.727 57.9788 193.612 58.0063C192.691 58.0247 191.77 58.0247 190.858 58.0338C190.821 58.0338 190.793 58.0614 190.683 58.1073V61.0714C191.843 61.0714 192.976 61.0806 194.1 61.0714C195.031 61.0622 195.694 61.3742 195.759 62.402C195.814 63.3197 195.243 63.8611 194.119 63.8795C192.497 63.907 190.876 63.9162 189.264 63.8795C188.039 63.852 187.541 63.3105 187.532 62.09C187.523 58.5019 187.514 54.9229 187.532 51.3347C187.532 49.9674 188.057 49.4626 189.393 49.4535C190.941 49.4351 192.488 49.4535 194.027 49.4535C194.939 49.4535 195.519 49.8481 195.593 50.7841C195.666 51.6376 195.068 52.2249 194.045 52.2616C192.949 52.2983 191.843 52.2708 190.637 52.2708Z" fill="white"/>
<path d="M123.719 52.2719C123.719 55.4104 123.719 58.4021 123.719 61.3937C123.719 61.8342 123.746 62.2747 123.691 62.706C123.59 63.5044 123.101 63.9357 122.281 63.9724C121.471 64.0092 120.927 63.6513 120.743 62.8529C120.66 62.4674 120.66 62.0545 120.66 61.6599C120.66 58.5948 120.66 55.5206 120.66 52.2811C119.951 52.2811 119.306 52.2995 118.661 52.2811C117.611 52.2352 117.058 51.7305 117.077 50.8495C117.095 49.9777 117.648 49.473 118.707 49.473C121.065 49.4546 123.415 49.473 125.773 49.473C126.694 49.473 127.247 49.8951 127.302 50.8312C127.357 51.7305 126.823 52.2444 125.773 52.2903C125.146 52.3178 124.529 52.2903 123.728 52.2903L123.719 52.2719Z" fill="white"/>
</g>
<defs>
<clipPath id="clip0_762_425">
<rect width="239" height="66" fill="white"/>
</clipPath>
</defs>
</svg>
